<?xml version="1.0" standalone="no"?>
<!DOCTYPE svg PUBLIC "-//W3C//DTD SVG 20010904//EN"
 "http://www.w3.org/TR/2001/REC-SVG-20010904/DTD/svg10.dtd">
<svg version="1.0" xmlns="http://www.w3.org/2000/svg"
 width="988.000000pt" height="988.000000pt" viewBox="0 0 988.000000 988.000000"
 preserveAspectRatio="xMidYMid meet">
<metadata>
Created by potrace 1.11, written by Peter Selinger 2001-2013
</metadata>
<g transform="translate(0.000000,988.000000) scale(0.100000,-0.100000)"
fill="#000000" stroke="none">
<path d="M4252 6418 l3 -1102 250 -1 c138 0 256 1 263 3 9 3 12 233 12 1103
l0 1099 -265 0 -265 0 2 -1102z"/>
<path d="M5320 7483 c-1 -52 -1 -1999 -1 -2093 l1 -75 257 1 c142 1 261 2 266
3 4 1 7 496 7 1101 l0 1100 -265 0 -265 0 0 -37z"/>
<path d="M3180 6823 c-1 -197 -1 -1338 0 -1433 l0 -75 262 0 263 1 3 827 2
827 -265 0 -265 0 0 -147z"/>
<path d="M6390 6918 c-3 -380 0 -1590 3 -1595 4 -6 490 -10 530 -4 4 1 7 372
7 826 l0 825 -270 0 -270 0 0 -52z"/>
<path d="M1144 4598 c-19 -33 -34 -61 -34 -64 0 -3 -24 -47 -52 -98 -29 -50
-64 -114 -78 -141 -14 -28 -27 -52 -30 -55 -3 -3 -12 -18 -20 -35 -8 -16 -46
-86 -84 -155 -37 -69 -84 -154 -103 -190 -20 -36 -60 -109 -90 -163 -29 -54
-76 -141 -104 -193 l-50 -94 99 0 100 0 25 43 c13 23 50 92 81 154 l57 111
134 -1 c77 -1 131 2 128 7 -4 5 0 6 7 1 7 -5 139 -9 292 -9 l279 -1 79 -150
78 -150 111 -2 c61 -1 111 1 111 4 0 4 -147 273 -250 458 -9 17 -32 57 -50 90
-18 33 -50 91 -71 128 -22 38 -39 71 -39 73 0 2 -11 21 -23 42 -13 20 -40 66
-59 102 -19 36 -67 122 -107 192 -39 71 -71 132 -71 138 0 13 6 12 -123 14
l-108 2 -35 -58z m251 -303 c15 -27 59 -111 98 -185 38 -74 81 -155 94 -179
13 -24 22 -46 19 -48 -9 -10 -141 -9 -153 0 -9 6 -13 5 -13 -2 0 -8 -5 -9 -16
-3 -9 5 -33 6 -55 2 -25 -5 -36 -4 -32 3 3 6 1 7 -6 3 -17 -11 -111 -13 -111
-3 0 4 -6 5 -12 1 -17 -11 -48 -13 -48 -3 0 4 -16 3 -35 -1 -20 -4 -38 -4 -41
1 -3 5 -10 6 -17 2 -15 -9 -88 -10 -94 -1 -2 5 -9 5 -15 2 -9 -6 31 74 157
311 24 44 68 129 99 189 31 60 59 114 63 119 3 5 24 -28 48 -74 23 -46 54
-106 70 -134z"/>
<path d="M2600 4429 c-25 -3 -51 -4 -57 -2 -7 3 -13 0 -13 -6 0 -6 -9 -11 -19
-11 -30 0 -78 -53 -92 -101 -16 -59 -16 -272 0 -332 17 -58 51 -93 105 -109
27 -8 156 -13 391 -14 193 -1 360 -3 372 -3 21 -1 21 -4 21 -133 -1 -73 -2
-137 -5 -143 -2 -8 -569 -12 -750 -5 -9 0 -13 22 -13 76 0 67 -2 75 -17 70
-10 -3 -31 -8 -48 -11 -119 -20 -114 -16 -108 -88 7 -80 6 -76 26 -117 19 -39
59 -65 124 -79 57 -12 760 -12 809 0 22 5 45 11 51 12 24 5 74 48 68 58 -4 5
-2 9 4 9 17 0 32 103 31 220 -2 171 -22 235 -83 267 -49 25 -76 27 -455 27
l-363 1 3 134 3 135 58 0 c31 1 57 -2 57 -6 0 -4 11 -3 25 2 15 6 26 6 30 -1
4 -5 11 -6 17 -3 16 10 229 11 235 1 2 -4 10 -4 16 0 17 10 100 10 115 0 6 -5
12 -6 12 -1 0 7 82 10 133 5 4 -1 7 -30 7 -66 l0 -66 41 6 c23 4 51 10 63 14
25 10 30 11 55 11 17 0 18 7 16 60 -6 113 -58 173 -163 186 -71 9 -641 11
-702 3z"/>
<path d="M4167 4434 c-1 -1 -27 -4 -58 -7 -78 -9 -149 -51 -149 -90 0 -7 -3
-17 -7 -21 -12 -11 -14 -37 -17 -151 -2 -124 8 -196 32 -234 46 -71 67 -75
492 -77 201 -1 368 -3 371 -3 4 -1 6 -64 6 -141 l-1 -140 -51 -1 c-61 0 -697
0 -707 0 -5 1 -8 33 -8 71 0 67 -4 76 -33 71 -18 -3 -44 -8 -69 -14 -16 -4
-39 -9 -52 -12 -23 -5 -24 -8 -20 -61 5 -80 20 -128 50 -157 51 -51 85 -54
514 -53 428 2 452 5 500 56 38 41 49 106 47 270 -2 121 -6 151 -22 184 -18 35
-67 71 -115 85 -8 3 -181 5 -385 6 l-370 1 -3 134 -3 135 41 -1 c22 -1 43 -4
47 -7 3 -4 11 -4 16 0 17 10 210 10 225 0 7 -6 12 -6 12 0 0 10 60 10 78 -1 7
-4 12 -4 12 1 0 4 44 7 97 5 109 -3 112 -3 148 -1 14 1 28 0 30 -2 9 -10 13
-59 4 -59 -6 0 -7 -6 -1 -16 5 -9 7 -26 4 -36 -5 -22 5 -21 118 5 l55 13 0 44
c1 58 -21 118 -54 151 -24 24 -45 32 -111 46 -21 5 -658 11 -663 7z"/>
<path d="M5461 4430 c-4 -3 -7 -232 -7 -510 l1 -505 518 -2 517 -3 0 74 c0 50
-4 75 -12 78 -7 2 -194 3 -416 2 -233 0 -405 3 -408 8 -5 8 -8 193 -5 275 l1
22 250 -2 250 -2 0 67 c0 86 -5 99 -34 88 -13 -4 -29 -4 -39 1 -9 6 -17 6 -17
1 0 -9 -36 -10 -44 -1 -3 3 -32 2 -64 -1 -32 -3 -70 -3 -83 1 -13 3 -31 3 -39
-1 -8 -4 -24 -4 -35 0 -11 4 -30 4 -42 -1 -13 -5 -25 -4 -28 2 -4 5 -11 7 -16
3 -6 -3 -21 -7 -35 -9 -27 -3 -26 -12 -25 159 0 54 2 101 5 104 9 9 206 8 206
-1 0 -5 5 -5 12 -1 14 9 71 10 85 1 6 -4 13 -4 17 0 9 9 227 9 233 0 3 -4 10
-4 16 0 15 11 98 10 115 0 6 -5 12 -5 12 0 0 4 29 7 64 6 l65 -1 0 74 c0 69
-2 74 -22 75 -101 4 -991 3 -996 -1z"/>
<path d="M7044 4428 c-97 -10 -137 -33 -164 -92 -21 -45 -24 -66 -24 -189 -1
-129 1 -143 25 -195 27 -58 53 -78 118 -90 14 -2 190 -5 391 -7 l365 -1 1
-142 0 -142 -30 -1 c-17 0 -188 0 -381 -1 l-350 0 -5 74 c-5 68 -7 75 -25 71
-11 -2 -31 -5 -45 -8 -14 -2 -25 -4 -25 -5 0 -1 -9 -3 -19 -5 -67 -13 -65 -11
-60 -72 10 -125 39 -171 124 -197 65 -19 857 -17 869 2 5 8 11 13 15 13 19 -3
27 1 49 22 43 39 57 113 54 276 -3 121 -7 153 -23 185 -18 36 -76 80 -114 85
-8 1 -179 3 -380 5 -201 2 -368 4 -372 5 -5 1 -8 60 -8 131 0 97 3 130 13 131
60 4 120 3 124 -4 2 -4 10 -4 16 0 17 10 100 10 115 0 6 -5 12 -6 12 -1 0 10
72 10 87 1 6 -4 13 -4 17 0 10 10 209 10 224 0 7 -6 12 -6 12 0 0 12 68 9 81
-4 6 -6 11 -37 10 -68 l0 -57 32 6 c18 4 43 9 57 11 77 13 85 19 85 66 1 49
-19 114 -44 143 -20 24 -72 46 -125 53 -60 8 -631 9 -702 1z"/>
<path d="M8617 4434 c-1 -1 -26 -4 -55 -7 -92 -10 -151 -55 -168 -129 -11 -48
-10 -255 2 -306 16 -72 59 -117 123 -128 25 -4 208 -8 406 -9 l360 -2 1 -141
0 -142 -35 -1 c-193 -3 -723 0 -727 4 -3 3 -6 36 -7 74 -1 39 -6 67 -12 66 -5
0 -26 -4 -46 -7 -20 -3 -42 -7 -50 -10 -8 -2 -26 -7 -40 -10 -15 -3 -29 -15
-32 -26 -3 -11 -2 -18 2 -16 4 3 8 -18 9 -45 3 -77 35 -133 90 -161 47 -23 48
-23 457 -23 450 0 465 2 517 58 38 42 46 88 44 262 -2 135 -4 154 -24 193 -17
33 -34 48 -70 64 -45 20 -64 21 -419 23 -205 0 -375 4 -378 7 -8 8 -9 243 -1
256 4 7 15 8 29 3 12 -5 31 -5 42 -2 11 4 52 5 90 4 87 -4 77 -4 158 -1 37 2
67 -1 67 -5 0 -4 8 -4 18 0 21 10 103 10 119 0 6 -4 14 -4 16 0 6 10 99 9 115
-1 7 -4 12 -3 12 1 0 5 9 9 19 9 11 0 19 -3 19 -6 0 -3 1 -9 2 -15 1 -5 1 -34
0 -63 l-2 -53 29 5 c15 3 40 7 56 10 15 4 38 8 52 10 38 7 43 13 41 53 -7 115
-47 172 -134 193 -36 8 -157 13 -374 14 -176 0 -320 0 -321 0z"/>
<path d="M1134 3098 c-10 -31 5 -38 87 -36 43 1 82 -1 85 -4 3 -3 5 -78 5
-167 l0 -161 33 0 32 0 0 165 c-1 158 0 165 19 166 11 0 51 1 89 2 57 2 70 5
72 19 1 10 -3 21 -9 25 -7 4 -101 8 -210 8 -179 0 -198 -2 -203 -17z"/>
<path d="M4112 3110 c-4 -3 -7 -88 -7 -190 l1 -185 27 -3 c20 -3 27 1 28 15 0
10 0 78 0 152 0 130 1 134 17 109 50 -77 158 -218 168 -218 8 0 72 86 109 148
6 9 13 19 16 22 3 3 16 21 30 41 l24 36 -2 -93 c-1 -51 -4 -98 -7 -103 -4 -5
-3 -12 2 -15 4 -2 7 -25 5 -51 l-3 -46 31 3 32 3 -1 180 c0 99 -1 185 -1 190
-1 16 -48 11 -68 -8 -10 -9 -50 -63 -88 -121 -39 -58 -72 -106 -75 -106 -3 0
-24 24 -45 53 -22 28 -42 54 -45 57 -4 3 -27 34 -52 70 -44 62 -71 79 -96 60z"/>
<path d="M1650 2923 c-41 -71 -83 -143 -93 -160 l-19 -33 31 0 c26 0 34 6 48
35 l17 35 112 0 112 0 21 -35 c16 -28 27 -35 51 -35 16 0 30 2 30 4 0 6 -168
286 -181 302 -6 8 -21 14 -33 14 -17 0 -37 -26 -96 -127z m150 -15 l32 -58
-81 0 c-45 0 -81 2 -81 5 0 2 16 34 36 70 42 76 42 76 94 -17z"/>
<path d="M2060 2891 l0 -161 154 0 154 0 0 23 c0 23 -2 23 -112 24 -61 1 -116
2 -123 2 -9 1 -13 38 -15 134 l-3 132 -27 3 -28 3 0 -160z"/>
<path d="M2464 3038 c-5 -8 -6 -299 -1 -304 1 -2 72 -4 157 -5 148 -1 154 0
162 20 4 12 4 21 0 22 -4 1 -63 2 -132 2 l-125 2 -3 48 -3 47 80 0 c78 0 81 1
77 23 -3 20 -9 22 -55 22 -28 0 -51 3 -51 8 0 4 -9 3 -19 -2 -22 -12 -31 2
-31 51 0 29 1 29 50 27 27 -2 52 0 56 3 3 4 16 3 28 -1 24 -8 86 -7 110 2 9 4
16 15 16 25 0 18 -10 19 -155 19 -86 0 -158 -4 -161 -9z"/>
<path d="M2900 2890 l0 -161 28 3 27 3 -1 113 c0 61 2 112 4 112 7 0 184 -155
239 -208 14 -14 33 -22 46 -20 21 3 22 7 24 138 2 169 0 180 -33 178 l-25 -2
3 -123 3 -122 -50 47 c-27 26 -52 49 -55 52 -70 68 -168 145 -186 147 l-24 4
0 -161z"/>
<path d="M3352 3027 c3 -22 53 -42 64 -26 3 5 10 6 16 3 6 -4 24 -7 39 -6 33
1 31 13 31 -160 l0 -108 29 0 c33 0 31 -9 31 162 -1 83 2 108 14 112 8 3 14 2
14 -2 0 -7 96 -6 116 2 7 3 10 13 8 23 -5 18 -18 19 -185 20 -176 0 -180 0
-177 -20z"/>
<path d="M4862 2996 c-73 -125 -147 -251 -150 -258 -2 -5 10 -8 27 -8 26 0 34
6 48 34 16 33 18 35 82 38 36 2 88 2 114 0 44 -3 49 -6 64 -38 14 -29 22 -34
50 -34 18 0 33 2 33 4 0 2 -31 55 -68 117 -37 63 -79 133 -91 156 -19 33 -29
41 -51 41 -22 -1 -34 -11 -58 -52z m102 -78 l36 -68 -81 0 c-44 0 -79 4 -77 8
18 44 74 140 79 134 3 -4 23 -37 43 -74z"/>
<path d="M5230 2889 l0 -160 28 3 27 3 -1 120 0 120 35 -35 c20 -20 72 -67
116 -105 44 -39 88 -78 99 -87 11 -10 29 -18 41 -18 20 0 21 4 21 158 l0 159
-26 -1 -25 -1 0 -121 0 -121 -95 86 c-52 47 -112 102 -133 121 -22 19 -50 36
-63 37 l-24 2 0 -160z"/>
<path d="M5828 2973 c-24 -41 -48 -82 -53 -91 -26 -43 -85 -149 -85 -154 0 -2
13 -3 29 0 20 3 34 14 47 37 l18 34 99 3 c54 2 106 0 116 -4 10 -3 24 -20 31
-37 10 -26 18 -31 46 -31 19 0 34 2 34 4 0 3 -22 41 -50 86 -27 45 -50 83 -50
85 0 5 -67 115 -79 129 -6 7 -23 14 -36 14 -21 0 -33 -14 -67 -75z m115 -53
l37 -70 -80 0 c-44 0 -80 2 -80 5 0 10 72 135 78 135 4 0 24 -32 45 -70z"/>
<path d="M6243 3038 c-18 -5 -33 -14 -34 -21 0 -7 -3 -21 -5 -32 -3 -11 -5
-38 -4 -60 1 -22 2 -47 1 -55 -2 -29 -1 -65 4 -89 9 -49 17 -51 181 -51 193 0
184 -6 187 135 l1 40 -95 0 c-87 0 -94 -1 -94 -20 0 -18 8 -20 63 -23 l63 -3
-3 -42 -3 -41 -122 -1 -122 0 0 112 1 113 117 -1 c117 -1 144 -8 134 -35 -4
-12 0 -13 20 -5 14 5 28 7 31 4 3 -4 6 6 6 20 0 52 -27 62 -168 63 -70 0 -142
-3 -159 -8z"/>
<path d="M6710 2889 l0 -159 159 0 c148 0 159 1 164 19 3 11 0 21 -7 23 -6 2
-66 4 -133 3 l-123 -1 0 48 0 48 80 0 c77 0 80 1 76 23 -3 20 -8 22 -77 22
l-74 0 -3 44 c-3 43 -3 43 27 39 17 -3 31 -1 31 3 0 4 13 4 30 -1 18 -5 32 -5
36 1 3 5 10 7 15 4 5 -4 33 -7 61 -8 50 -1 53 0 53 23 l0 25 -157 1 -158 2 0
-159z"/>
<path d="M7150 2890 l0 -160 25 0 c24 0 25 2 24 68 0 37 0 92 0 122 l1 55 27
-40 c15 -22 30 -41 35 -43 4 -2 8 -10 8 -18 0 -8 4 -14 9 -14 4 0 21 -18 36
-40 15 -22 33 -40 41 -40 7 0 21 15 33 33 11 17 28 41 38 52 10 11 31 39 47
63 16 23 29 42 30 42 5 0 -3 -150 -8 -158 -3 -6 -3 -13 2 -16 5 -3 7 -19 4
-36 -4 -28 -2 -30 26 -30 l30 0 0 158 1 158 -29 2 c-22 2 -32 -5 -48 -30 -12
-18 -30 -43 -42 -55 -11 -13 -18 -23 -15 -23 4 0 -4 -13 -17 -29 -12 -15 -29
-38 -37 -49 -14 -20 -18 -16 -89 76 -79 104 -87 112 -114 112 -16 0 -18 -14
-18 -160z"/>
<path d="M7710 2888 l0 -158 158 0 c87 0 161 3 164 6 3 3 4 13 1 23 -4 15 -19
17 -134 16 l-129 -2 0 49 0 48 80 0 c77 0 80 1 76 23 -3 20 -8 22 -77 22 l-74
0 -3 42 -3 41 98 1 c54 1 113 1 131 1 29 -1 33 2 30 22 -3 23 -4 23 -160 24
l-158 1 0 -159z"/>
<path d="M8150 2889 l0 -160 28 3 27 3 0 120 -1 120 46 -45 c40 -40 91 -86
195 -174 17 -14 39 -26 50 -26 20 0 20 6 20 158 l0 157 -25 -1 c-14 -1 -27 -2
-30 -3 -5 -1 -3 -155 3 -204 2 -15 0 -26 -3 -25 -7 3 -132 113 -174 153 -58
55 -99 85 -116 85 -19 0 -20 -8 -20 -161z"/>
<path d="M8603 3024 c0 -22 4 -24 56 -25 31 -1 64 -1 74 0 15 2 17 -10 17
-133 l0 -136 30 0 c22 0 30 5 30 18 1 9 1 70 1 134 0 115 0 118 22 118 12 0
31 0 42 0 11 0 32 0 47 -1 39 -1 50 8 38 30 -8 17 -26 18 -183 18 l-174 0 0
-23z"/>
</g>
</svg>
